<mxfile host="app.diagrams.net" agent="Mozilla/5.0 (Macintosh; Intel Mac OS X 10_15_7) AppleWebKit/537.36 (KHTML, like Gecko) Chrome/137.0.0.0 Safari/537.36" version="27.2.0">
  <diagram name="第 1 页" id="Ljf3TgGwvEeEhDhsw-wa">
    <mxGraphModel dx="1174" dy="790" grid="1" gridSize="10" guides="1" tooltips="1" connect="1" arrows="1" fold="1" page="1" pageScale="1" pageWidth="827" pageHeight="1169" math="0" shadow="0">
      <root>
        <mxCell id="0" />
        <mxCell id="1" parent="0" />
        <mxCell id="Fsw9sJk3aNRUWGrDLwyH-1" value="Group" style="swimlane;fontStyle=2;align=center;verticalAlign=top;childLayout=stackLayout;horizontal=1;startSize=26;horizontalStack=0;resizeParent=1;resizeLast=0;collapsible=1;marginBottom=0;rounded=0;shadow=0;strokeWidth=1;" vertex="1" parent="1">
          <mxGeometry x="490" y="400" width="160" height="170" as="geometry">
            <mxRectangle x="230" y="140" width="160" height="26" as="alternateBounds" />
          </mxGeometry>
        </mxCell>
        <mxCell id="Fsw9sJk3aNRUWGrDLwyH-2" value="" style="line;html=1;strokeWidth=1;align=left;verticalAlign=middle;spacingTop=-1;spacingLeft=3;spacingRight=3;rotatable=0;labelPosition=right;points=[];portConstraint=eastwest;" vertex="1" parent="Fsw9sJk3aNRUWGrDLwyH-1">
          <mxGeometry y="26" width="160" height="8" as="geometry" />
        </mxCell>
        <mxCell id="Fsw9sJk3aNRUWGrDLwyH-3" value="+ find(): void" style="text;align=left;verticalAlign=top;spacingLeft=4;spacingRight=4;overflow=hidden;rotatable=0;points=[[0,0.5],[1,0.5]];portConstraint=eastwest;" vertex="1" parent="Fsw9sJk3aNRUWGrDLwyH-1">
          <mxGeometry y="34" width="160" height="26" as="geometry" />
        </mxCell>
        <mxCell id="Fsw9sJk3aNRUWGrDLwyH-4" value="+ add(): void" style="text;align=left;verticalAlign=top;spacingLeft=4;spacingRight=4;overflow=hidden;rotatable=0;points=[[0,0.5],[1,0.5]];portConstraint=eastwest;" vertex="1" parent="Fsw9sJk3aNRUWGrDLwyH-1">
          <mxGeometry y="60" width="160" height="26" as="geometry" />
        </mxCell>
        <mxCell id="Fsw9sJk3aNRUWGrDLwyH-5" value="+ delete(): void" style="text;align=left;verticalAlign=top;spacingLeft=4;spacingRight=4;overflow=hidden;rotatable=0;points=[[0,0.5],[1,0.5]];portConstraint=eastwest;" vertex="1" parent="Fsw9sJk3aNRUWGrDLwyH-1">
          <mxGeometry y="86" width="160" height="26" as="geometry" />
        </mxCell>
        <mxCell id="Fsw9sJk3aNRUWGrDLwyH-6" value="+ change(): void" style="text;align=left;verticalAlign=top;spacingLeft=4;spacingRight=4;overflow=hidden;rotatable=0;points=[[0,0.5],[1,0.5]];portConstraint=eastwest;" vertex="1" parent="Fsw9sJk3aNRUWGrDLwyH-1">
          <mxGeometry y="112" width="160" height="26" as="geometry" />
        </mxCell>
        <mxCell id="Fsw9sJk3aNRUWGrDLwyH-7" value="+ plan(): void" style="text;align=left;verticalAlign=top;spacingLeft=4;spacingRight=4;overflow=hidden;rotatable=0;points=[[0,0.5],[1,0.5]];portConstraint=eastwest;" vertex="1" parent="Fsw9sJk3aNRUWGrDLwyH-1">
          <mxGeometry y="138" width="160" height="26" as="geometry" />
        </mxCell>
        <mxCell id="Fsw9sJk3aNRUWGrDLwyH-8" value="CodeGroup" style="swimlane;fontStyle=2;align=center;verticalAlign=top;childLayout=stackLayout;horizontal=1;startSize=26;horizontalStack=0;resizeParent=1;resizeLast=0;collapsible=1;marginBottom=0;rounded=0;shadow=0;strokeWidth=1;" vertex="1" parent="1">
          <mxGeometry x="270" y="620" width="160" height="50" as="geometry">
            <mxRectangle x="230" y="140" width="160" height="26" as="alternateBounds" />
          </mxGeometry>
        </mxCell>
        <mxCell id="Fsw9sJk3aNRUWGrDLwyH-9" value="" style="line;html=1;strokeWidth=1;align=left;verticalAlign=middle;spacingTop=-1;spacingLeft=3;spacingRight=3;rotatable=0;labelPosition=right;points=[];portConstraint=eastwest;" vertex="1" parent="Fsw9sJk3aNRUWGrDLwyH-8">
          <mxGeometry y="26" width="160" height="8" as="geometry" />
        </mxCell>
        <mxCell id="Fsw9sJk3aNRUWGrDLwyH-10" value="PageGroup" style="swimlane;fontStyle=2;align=center;verticalAlign=top;childLayout=stackLayout;horizontal=1;startSize=26;horizontalStack=0;resizeParent=1;resizeLast=0;collapsible=1;marginBottom=0;rounded=0;shadow=0;strokeWidth=1;" vertex="1" parent="1">
          <mxGeometry x="490" y="620" width="160" height="50" as="geometry">
            <mxRectangle x="230" y="140" width="160" height="26" as="alternateBounds" />
          </mxGeometry>
        </mxCell>
        <mxCell id="Fsw9sJk3aNRUWGrDLwyH-11" value="" style="line;html=1;strokeWidth=1;align=left;verticalAlign=middle;spacingTop=-1;spacingLeft=3;spacingRight=3;rotatable=0;labelPosition=right;points=[];portConstraint=eastwest;" vertex="1" parent="Fsw9sJk3aNRUWGrDLwyH-10">
          <mxGeometry y="26" width="160" height="8" as="geometry" />
        </mxCell>
        <mxCell id="Fsw9sJk3aNRUWGrDLwyH-12" value="RequireGroup" style="swimlane;fontStyle=2;align=center;verticalAlign=top;childLayout=stackLayout;horizontal=1;startSize=26;horizontalStack=0;resizeParent=1;resizeLast=0;collapsible=1;marginBottom=0;rounded=0;shadow=0;strokeWidth=1;" vertex="1" parent="1">
          <mxGeometry x="700" y="620" width="160" height="50" as="geometry">
            <mxRectangle x="230" y="140" width="160" height="26" as="alternateBounds" />
          </mxGeometry>
        </mxCell>
        <mxCell id="Fsw9sJk3aNRUWGrDLwyH-13" value="" style="line;html=1;strokeWidth=1;align=left;verticalAlign=middle;spacingTop=-1;spacingLeft=3;spacingRight=3;rotatable=0;labelPosition=right;points=[];portConstraint=eastwest;" vertex="1" parent="Fsw9sJk3aNRUWGrDLwyH-12">
          <mxGeometry y="26" width="160" height="8" as="geometry" />
        </mxCell>
        <mxCell id="Fsw9sJk3aNRUWGrDLwyH-14" value="" style="endArrow=block;dashed=1;endFill=0;endSize=12;html=1;rounded=0;exitX=0.5;exitY=0;exitDx=0;exitDy=0;entryX=0.5;entryY=1;entryDx=0;entryDy=0;" edge="1" parent="1" source="Fsw9sJk3aNRUWGrDLwyH-8" target="Fsw9sJk3aNRUWGrDLwyH-1">
          <mxGeometry width="160" relative="1" as="geometry">
            <mxPoint x="520" y="760" as="sourcePoint" />
            <mxPoint x="680" y="760" as="targetPoint" />
            <Array as="points">
              <mxPoint x="350" y="600" />
              <mxPoint x="570" y="600" />
            </Array>
          </mxGeometry>
        </mxCell>
        <mxCell id="Fsw9sJk3aNRUWGrDLwyH-15" value="" style="endArrow=block;dashed=1;endFill=0;endSize=12;html=1;rounded=0;exitX=0.5;exitY=0;exitDx=0;exitDy=0;" edge="1" parent="1" source="Fsw9sJk3aNRUWGrDLwyH-10">
          <mxGeometry width="160" relative="1" as="geometry">
            <mxPoint x="640" y="830" as="sourcePoint" />
            <mxPoint x="570" y="570" as="targetPoint" />
          </mxGeometry>
        </mxCell>
        <mxCell id="Fsw9sJk3aNRUWGrDLwyH-16" value="" style="endArrow=block;dashed=1;endFill=0;endSize=12;html=1;rounded=0;exitX=0.5;exitY=0;exitDx=0;exitDy=0;" edge="1" parent="1" source="Fsw9sJk3aNRUWGrDLwyH-12">
          <mxGeometry width="160" relative="1" as="geometry">
            <mxPoint x="720" y="870" as="sourcePoint" />
            <mxPoint x="570" y="570" as="targetPoint" />
            <Array as="points">
              <mxPoint x="780" y="600" />
              <mxPoint x="570" y="600" />
            </Array>
          </mxGeometry>
        </mxCell>
        <mxCell id="Fsw9sJk3aNRUWGrDLwyH-60" value="Command" style="swimlane;fontStyle=1;align=center;verticalAlign=top;childLayout=stackLayout;horizontal=1;startSize=26;horizontalStack=0;resizeParent=1;resizeParentMax=0;resizeLast=0;collapsible=1;marginBottom=0;whiteSpace=wrap;html=1;" vertex="1" parent="1">
          <mxGeometry x="450" y="790" width="240" height="136" as="geometry" />
        </mxCell>
        <mxCell id="Fsw9sJk3aNRUWGrDLwyH-61" value="+ codeGroup: CodeGroup" style="text;strokeColor=none;fillColor=none;align=left;verticalAlign=top;spacingLeft=4;spacingRight=4;overflow=hidden;rotatable=0;points=[[0,0.5],[1,0.5]];portConstraint=eastwest;whiteSpace=wrap;html=1;" vertex="1" parent="Fsw9sJk3aNRUWGrDLwyH-60">
          <mxGeometry y="26" width="240" height="24" as="geometry" />
        </mxCell>
        <mxCell id="Fsw9sJk3aNRUWGrDLwyH-64" value="+ requirementGroup: RequirementGroup" style="text;strokeColor=none;fillColor=none;align=left;verticalAlign=top;spacingLeft=4;spacingRight=4;overflow=hidden;rotatable=0;points=[[0,0.5],[1,0.5]];portConstraint=eastwest;whiteSpace=wrap;html=1;" vertex="1" parent="Fsw9sJk3aNRUWGrDLwyH-60">
          <mxGeometry y="50" width="240" height="24" as="geometry" />
        </mxCell>
        <mxCell id="Fsw9sJk3aNRUWGrDLwyH-65" value="+ pageGroup: PageGroup" style="text;strokeColor=none;fillColor=none;align=left;verticalAlign=top;spacingLeft=4;spacingRight=4;overflow=hidden;rotatable=0;points=[[0,0.5],[1,0.5]];portConstraint=eastwest;whiteSpace=wrap;html=1;" vertex="1" parent="Fsw9sJk3aNRUWGrDLwyH-60">
          <mxGeometry y="74" width="240" height="24" as="geometry" />
        </mxCell>
        <mxCell id="Fsw9sJk3aNRUWGrDLwyH-62" value="" style="line;strokeWidth=1;fillColor=none;align=left;verticalAlign=top;spacingTop=-1;spacingLeft=3;spacingRight=3;rotatable=0;labelPosition=right;points=[];portConstraint=eastwest;strokeColor=inherit;" vertex="1" parent="Fsw9sJk3aNRUWGrDLwyH-60">
          <mxGeometry y="98" width="240" height="12" as="geometry" />
        </mxCell>
        <mxCell id="Fsw9sJk3aNRUWGrDLwyH-63" value="+ execute(): void" style="text;strokeColor=none;fillColor=none;align=left;verticalAlign=top;spacingLeft=4;spacingRight=4;overflow=hidden;rotatable=0;points=[[0,0.5],[1,0.5]];portConstraint=eastwest;whiteSpace=wrap;html=1;" vertex="1" parent="Fsw9sJk3aNRUWGrDLwyH-60">
          <mxGeometry y="110" width="240" height="26" as="geometry" />
        </mxCell>
        <mxCell id="Fsw9sJk3aNRUWGrDLwyH-68" value="" style="endArrow=diamondThin;endFill=0;endSize=24;html=1;rounded=0;entryX=0.5;entryY=0;entryDx=0;entryDy=0;exitX=0.5;exitY=1;exitDx=0;exitDy=0;" edge="1" parent="1" source="Fsw9sJk3aNRUWGrDLwyH-10" target="Fsw9sJk3aNRUWGrDLwyH-60">
          <mxGeometry width="160" relative="1" as="geometry">
            <mxPoint x="460" y="750" as="sourcePoint" />
            <mxPoint x="620" y="750" as="targetPoint" />
          </mxGeometry>
        </mxCell>
        <mxCell id="Fsw9sJk3aNRUWGrDLwyH-69" value="" style="endArrow=diamondThin;endFill=0;endSize=24;html=1;rounded=0;entryX=0.5;entryY=0;entryDx=0;entryDy=0;exitX=0.5;exitY=1;exitDx=0;exitDy=0;" edge="1" parent="1" source="Fsw9sJk3aNRUWGrDLwyH-12" target="Fsw9sJk3aNRUWGrDLwyH-60">
          <mxGeometry width="160" relative="1" as="geometry">
            <mxPoint x="700" y="750" as="sourcePoint" />
            <mxPoint x="700" y="910" as="targetPoint" />
            <Array as="points">
              <mxPoint x="780" y="740" />
              <mxPoint x="570" y="740" />
            </Array>
          </mxGeometry>
        </mxCell>
        <mxCell id="Fsw9sJk3aNRUWGrDLwyH-70" value="" style="endArrow=diamondThin;endFill=0;endSize=24;html=1;rounded=0;entryX=0.5;entryY=0;entryDx=0;entryDy=0;exitX=0.5;exitY=1;exitDx=0;exitDy=0;" edge="1" parent="1" source="Fsw9sJk3aNRUWGrDLwyH-8" target="Fsw9sJk3aNRUWGrDLwyH-60">
          <mxGeometry width="160" relative="1" as="geometry">
            <mxPoint x="320" y="710" as="sourcePoint" />
            <mxPoint x="320" y="870" as="targetPoint" />
            <Array as="points">
              <mxPoint x="350" y="740" />
              <mxPoint x="570" y="740" />
            </Array>
          </mxGeometry>
        </mxCell>
        <mxCell id="Fsw9sJk3aNRUWGrDLwyH-71" value="DeletePageCommand" style="swimlane;fontStyle=1;align=center;verticalAlign=top;childLayout=stackLayout;horizontal=1;startSize=26;horizontalStack=0;resizeParent=1;resizeParentMax=0;resizeLast=0;collapsible=1;marginBottom=0;whiteSpace=wrap;html=1;" vertex="1" parent="1">
          <mxGeometry x="310" y="1000" width="240" height="64" as="geometry" />
        </mxCell>
        <mxCell id="Fsw9sJk3aNRUWGrDLwyH-75" value="" style="line;strokeWidth=1;fillColor=none;align=left;verticalAlign=top;spacingTop=-1;spacingLeft=3;spacingRight=3;rotatable=0;labelPosition=right;points=[];portConstraint=eastwest;strokeColor=inherit;" vertex="1" parent="Fsw9sJk3aNRUWGrDLwyH-71">
          <mxGeometry y="26" width="240" height="12" as="geometry" />
        </mxCell>
        <mxCell id="Fsw9sJk3aNRUWGrDLwyH-76" value="+ execute(): void" style="text;strokeColor=none;fillColor=none;align=left;verticalAlign=top;spacingLeft=4;spacingRight=4;overflow=hidden;rotatable=0;points=[[0,0.5],[1,0.5]];portConstraint=eastwest;whiteSpace=wrap;html=1;" vertex="1" parent="Fsw9sJk3aNRUWGrDLwyH-71">
          <mxGeometry y="38" width="240" height="26" as="geometry" />
        </mxCell>
        <mxCell id="Fsw9sJk3aNRUWGrDLwyH-83" value="AddRequirementCommand" style="swimlane;fontStyle=1;align=center;verticalAlign=top;childLayout=stackLayout;horizontal=1;startSize=26;horizontalStack=0;resizeParent=1;resizeParentMax=0;resizeLast=0;collapsible=1;marginBottom=0;whiteSpace=wrap;html=1;" vertex="1" parent="1">
          <mxGeometry x="640" y="1000" width="240" height="64" as="geometry" />
        </mxCell>
        <mxCell id="Fsw9sJk3aNRUWGrDLwyH-84" value="" style="line;strokeWidth=1;fillColor=none;align=left;verticalAlign=top;spacingTop=-1;spacingLeft=3;spacingRight=3;rotatable=0;labelPosition=right;points=[];portConstraint=eastwest;strokeColor=inherit;" vertex="1" parent="Fsw9sJk3aNRUWGrDLwyH-83">
          <mxGeometry y="26" width="240" height="12" as="geometry" />
        </mxCell>
        <mxCell id="Fsw9sJk3aNRUWGrDLwyH-85" value="+ execute(): void" style="text;strokeColor=none;fillColor=none;align=left;verticalAlign=top;spacingLeft=4;spacingRight=4;overflow=hidden;rotatable=0;points=[[0,0.5],[1,0.5]];portConstraint=eastwest;whiteSpace=wrap;html=1;" vertex="1" parent="Fsw9sJk3aNRUWGrDLwyH-83">
          <mxGeometry y="38" width="240" height="26" as="geometry" />
        </mxCell>
        <mxCell id="Fsw9sJk3aNRUWGrDLwyH-86" value="" style="endArrow=block;dashed=1;endFill=0;endSize=12;html=1;rounded=0;entryX=0.204;entryY=0.989;entryDx=0;entryDy=0;entryPerimeter=0;exitX=0.783;exitY=-0.04;exitDx=0;exitDy=0;exitPerimeter=0;" edge="1" parent="1" source="Fsw9sJk3aNRUWGrDLwyH-71" target="Fsw9sJk3aNRUWGrDLwyH-63">
          <mxGeometry width="160" relative="1" as="geometry">
            <mxPoint x="499" y="990" as="sourcePoint" />
            <mxPoint x="570" y="930" as="targetPoint" />
            <Array as="points">
              <mxPoint x="499" y="960" />
            </Array>
          </mxGeometry>
        </mxCell>
        <mxCell id="Fsw9sJk3aNRUWGrDLwyH-87" value="" style="endArrow=block;dashed=1;endFill=0;endSize=12;html=1;rounded=0;entryX=0.92;entryY=1.124;entryDx=0;entryDy=0;entryPerimeter=0;exitX=0.128;exitY=-0.003;exitDx=0;exitDy=0;exitPerimeter=0;" edge="1" parent="1" source="Fsw9sJk3aNRUWGrDLwyH-83" target="Fsw9sJk3aNRUWGrDLwyH-63">
          <mxGeometry width="160" relative="1" as="geometry">
            <mxPoint x="670" y="990" as="sourcePoint" />
            <mxPoint x="570" y="930" as="targetPoint" />
            <Array as="points">
              <mxPoint x="670" y="960" />
            </Array>
          </mxGeometry>
        </mxCell>
        <mxCell id="Fsw9sJk3aNRUWGrDLwyH-88" value="Client" style="swimlane;fontStyle=2;align=center;verticalAlign=top;childLayout=stackLayout;horizontal=1;startSize=26;horizontalStack=0;resizeParent=1;resizeLast=0;collapsible=1;marginBottom=0;rounded=0;shadow=0;strokeWidth=1;" vertex="1" parent="1">
          <mxGeometry x="790" y="1130" width="160" height="50" as="geometry">
            <mxRectangle x="230" y="140" width="160" height="26" as="alternateBounds" />
          </mxGeometry>
        </mxCell>
        <mxCell id="Fsw9sJk3aNRUWGrDLwyH-89" value="" style="line;html=1;strokeWidth=1;align=left;verticalAlign=middle;spacingTop=-1;spacingLeft=3;spacingRight=3;rotatable=0;labelPosition=right;points=[];portConstraint=eastwest;" vertex="1" parent="Fsw9sJk3aNRUWGrDLwyH-88">
          <mxGeometry y="26" width="160" height="8" as="geometry" />
        </mxCell>
        <mxCell id="Fsw9sJk3aNRUWGrDLwyH-90" value="Invoker" style="swimlane;fontStyle=2;align=center;verticalAlign=top;childLayout=stackLayout;horizontal=1;startSize=26;horizontalStack=0;resizeParent=1;resizeLast=0;collapsible=1;marginBottom=0;rounded=0;shadow=0;strokeWidth=1;" vertex="1" parent="1">
          <mxGeometry x="450" y="1110" width="240" height="90" as="geometry">
            <mxRectangle x="230" y="140" width="160" height="26" as="alternateBounds" />
          </mxGeometry>
        </mxCell>
        <mxCell id="Fsw9sJk3aNRUWGrDLwyH-91" value="" style="line;html=1;strokeWidth=1;align=left;verticalAlign=middle;spacingTop=-1;spacingLeft=3;spacingRight=3;rotatable=0;labelPosition=right;points=[];portConstraint=eastwest;" vertex="1" parent="Fsw9sJk3aNRUWGrDLwyH-90">
          <mxGeometry y="26" width="240" height="8" as="geometry" />
        </mxCell>
        <mxCell id="Fsw9sJk3aNRUWGrDLwyH-92" value="+ setCommand(Command command): void" style="text;align=left;verticalAlign=top;spacingLeft=4;spacingRight=4;overflow=hidden;rotatable=0;points=[[0,0.5],[1,0.5]];portConstraint=eastwest;" vertex="1" parent="Fsw9sJk3aNRUWGrDLwyH-90">
          <mxGeometry y="34" width="240" height="26" as="geometry" />
        </mxCell>
        <mxCell id="Fsw9sJk3aNRUWGrDLwyH-93" value="+ action(): void" style="text;align=left;verticalAlign=top;spacingLeft=4;spacingRight=4;overflow=hidden;rotatable=0;points=[[0,0.5],[1,0.5]];portConstraint=eastwest;" vertex="1" parent="Fsw9sJk3aNRUWGrDLwyH-90">
          <mxGeometry y="60" width="240" height="26" as="geometry" />
        </mxCell>
        <mxCell id="Fsw9sJk3aNRUWGrDLwyH-95" value="" style="endArrow=open;endFill=1;endSize=12;html=1;rounded=0;exitX=0;exitY=0.5;exitDx=0;exitDy=0;entryX=1;entryY=0.5;entryDx=0;entryDy=0;" edge="1" parent="1" source="Fsw9sJk3aNRUWGrDLwyH-88" target="Fsw9sJk3aNRUWGrDLwyH-92">
          <mxGeometry width="160" relative="1" as="geometry">
            <mxPoint x="690" y="1220" as="sourcePoint" />
            <mxPoint x="850" y="1220" as="targetPoint" />
          </mxGeometry>
        </mxCell>
        <mxCell id="Fsw9sJk3aNRUWGrDLwyH-96" value="" style="endArrow=diamondThin;endFill=0;endSize=24;html=1;rounded=0;entryX=0.5;entryY=0;entryDx=0;entryDy=0;" edge="1" parent="1" target="Fsw9sJk3aNRUWGrDLwyH-90">
          <mxGeometry width="160" relative="1" as="geometry">
            <mxPoint x="570" y="930" as="sourcePoint" />
            <mxPoint x="610" y="1060" as="targetPoint" />
          </mxGeometry>
        </mxCell>
      </root>
    </mxGraphModel>
  </diagram>
</mxfile>
